<svg width="128" height="20" viewBox="0 0 128 20" fill="none" xmlns="http://www.w3.org/2000/svg">
<path d="M127.364 19.3761H124.189L116.931 10.757V19.3761H114.396V0.697052H116.931V9.95651L124.109 0.697052H127.124L119.679 10.2767L127.364 19.3761Z" fill="#007AF5"/>
<path d="M110.886 3.15201H103.174V8.64898H109.125V11.0773H103.174V16.9211H110.886V19.3761H100.639V0.697052H110.886V3.15201Z" fill="#007AF5"/>
<path d="M93.6687 0.697052H96.2037V19.3761H93.6687V11.184H84.4359V19.3761H81.9009V0.697052H84.4359V8.72904H93.6687V0.697052Z" fill="#007AF5"/>
<path d="M74.1633 19.6962C68.3462 19.6962 64.6104 15.2133 64.6104 10.0365C64.6104 4.85974 68.3462 0.37677 74.1633 0.37677C75.8711 0.37677 77.3121 0.723665 78.5663 1.36409V4.21931C77.4989 3.36541 76.0846 2.83173 74.19 2.83173C70.0006 2.83173 67.1987 6.19395 67.1987 10.0365C67.1987 13.879 70.0006 17.2413 74.19 17.2413C76.0846 17.2413 77.4989 16.7076 78.5663 15.8537V18.7089C77.3121 19.3493 75.8711 19.6962 74.1633 19.6962Z" fill="#007AF5"/>
<path d="M49.4603 12.2248H62.4882V14.7065H46.9253V0.196869H49.4603V12.2248Z" fill="#007AF5"/>
<path d="M43.535 17.1974H62.0035V19.679H41V0.999969H43.535V17.1974Z" fill="#007AF5"/>
<path d="M38.8068 3.15201H31.0951V8.64898H37.0457V11.0773H31.0951V16.9211H38.8068V19.3761H28.5601V0.697052H38.8068V3.15201Z" fill="#007AF5"/>
<path d="M24.3895 0.670502L27.138 0.697186L17.9586 19.8032H17.5583L13.5823 11.3442L9.60636 19.8032H9.17941L0 0.697186L2.77517 0.670502L9.41957 14.9733L12.2748 8.88927L8.45893 0.697186L11.1007 0.670502L13.5823 6.35426L16.064 0.670502L18.7324 0.697186L14.8899 8.91596L17.7451 15L24.3895 0.670502Z" fill="#007AF5"/>
</svg>
